<?xml version="1.0" encoding="UTF-8"?>
<svg id="logosandtypes_com" data-name="logosandtypes com" xmlns="http://www.w3.org/2000/svg" viewBox="0 0 150 150">
  <defs>
    <style>
      .cls-1 {
        fill: none;
      }

      .cls-2 {
        fill: #FFF7ED;
      }
    </style>
  </defs>
  <path class="cls-1" d="M0,0H150V150H0V0Z"/>
  <path class="cls-2" d="M60.41,141.01c-43.18-5.89-44.02-56.84-9.48-78.52C35.94,30.12,75.7,1.62,105.42,11.2c7.77,2.34,13.59,6.89,15.62,15.15,.96,4.16,.23,9.78-4.65,10.95-6.79,1.96-10.12-3.16-11.62-9.03-2.49-10.61-5.71-13.16-16.46-12.57-18.52,.51-31.6,22.51-24.78,39.88,9.27-1.7,18.25-5.43,27.39-1.86,7.64,2.98,9.63,10.59,4.25,16.81-4.01,4.64-9.43,6.48-15.32,6.99-9.65,.83-17.97-2.16-24.9-9.43-16.04,12.51-18.57,36.76-5.72,51.44,12.08,14.01,35.73,14.75,48.05,1.46,4.64-5.01,6.77-10.78,5.17-17.67-1.56-6.21-3.01-15.61,5.02-16.72,4.35-.54,8.53,2.36,9.13,7.12,1.64,14.02-6.79,26.65-17.43,34.96-10.92,8.85-24.9,14.22-38.78,12.33Zm30.12-80.35c-1.42-4.15-15.54-1.74-23.74,.31,4.93,5.07,10.5,6.25,16.56,5.4,2.98-.42,8.69-1.29,7.18-5.71Z"/>
</svg>